<?xml version="1.0" encoding="utf-8"?>
<!-- Generator: Adobe Illustrator 17.0.0, SVG Export Plug-In . SVG Version: 6.00 Build 0)  -->
<!DOCTYPE svg PUBLIC "-//W3C//DTD SVG 1.1//EN" "http://www.w3.org/Graphics/SVG/1.1/DTD/svg11.dtd">
<svg version="1.1" id="Layer_1" xmlns="http://www.w3.org/2000/svg" xmlns:xlink="http://www.w3.org/1999/xlink" x="0px" y="0px"
	 width="50px" height="40px" viewBox="235 235.25 50 40" enable-background="new 235 235.25 50 40" xml:space="preserve">
<g opacity="0.4">
	<g>
		<path d="M261.415,241.394v14.571c0,0.574,0.083,1.126,0.236,1.642c0.074,0.716,0.356,1.41,0.845,1.958l12.257,13.761
			c1.154,1.295,3.024,1.295,4.178,0c0.577-0.648,0.865-1.497,0.865-2.346c0-0.849-0.288-1.698-0.865-2.346l-6.662-7.479h6.747
			c2.554,0,4.624-2.324,4.624-5.191v-14.571c0-2.867-2.07-5.191-4.624-5.191h-12.978
			C263.485,236.203,261.415,238.527,261.415,241.394z"/>
	</g>
	<g>
		<path d="M236.36,241.394v14.571c0,0.574,0.083,1.126,0.236,1.642c0.074,0.716,0.356,1.41,0.845,1.958l12.257,13.761
			c1.154,1.295,3.024,1.295,4.178,0c0.577-0.648,0.865-1.497,0.865-2.346c0-0.849-0.289-1.698-0.865-2.346l-6.662-7.479h6.747
			c2.553,0,4.624-2.324,4.624-5.191v-14.571c0-2.867-2.07-5.191-4.624-5.191h-12.978C238.43,236.203,236.36,238.527,236.36,241.394z
			"/>
	</g>
</g>
</svg>
